<svg width="32" height="32" viewBox="0 0 32 32" fill="none" xmlns="http://www.w3.org/2000/svg">
<rect width="32" height="32" rx="7" fill="#B3FF38"/>
<path d="M26 11V10.3333C26 9.78105 25.5523 9.33333 25 9.33333H22.6667M22.6667 9.33333V11.8333M22.6667 9.33333V7C22.6667 6.44771 22.219 6 21.6667 6H10.3333C9.78105 6 9.33333 6.44772 9.33333 7V9.33333M9.33333 9.33333H20.1667M9.33333 9.33333H7C6.44771 9.33333 6 9.78105 6 10.3333V21.6667C6 22.219 6.44772 22.6667 7 22.6667M9.33333 20.1667V22.6667M9.33333 22.6667V25C9.33333 25.5523 9.78105 26 10.3333 26H21.5C22.0523 26 22.5 25.5523 22.5 25M9.33333 22.6667H22.6667M26 21V21.6667C26 22.219 25.5523 22.6667 25 22.6667H22.6667M22.6667 22.6667V17C22.6667 16.4477 22.219 16 21.6667 16H10.3333C9.78105 16 9.33333 15.5523 9.33333 15V11.8333" stroke="#12121A" stroke-width="2"/>
</svg>
