<svg width="32" height="32" viewBox="0 0 32 32" fill="none" xmlns="http://www.w3.org/2000/svg">
<rect width="32" height="32" rx="7" fill="#B3FF38"/>
<g clip-path="url(#clip0_3019_540)">
<path d="M7.00029 14.3712C7.00029 15.8072 8.16435 16.9712 9.60029 16.9712H22.4003C22.7317 16.9712 23.0003 17.2399 23.0003 17.5712V22.9999H9.00029V21.036H7.00029V26.4C7.00029 27.8359 8.16435 29 9.60029 29H22.4003C23.6297 29 24.6598 28.1467 24.9307 27.0001L9.60029 27C9.26892 27 9.00029 26.7314 9.00029 26.4V24.9999L25.0003 25.0001L26.4 24.9999C27.8359 24.9999 29 23.8358 29 22.3999H27C27 22.7313 26.7314 22.9999 26.4 22.9999H25.0003V17.5712C25.0003 16.1353 23.8362 14.9712 22.4003 14.9712H9.60029C9.26892 14.9712 9.00029 14.7026 9.00029 14.3712V11H7.00072L7.00029 14.3712Z" fill="black"/>
<path d="M9.60029 3C8.16435 3 7.00029 4.16406 7.00029 5.6V6.9999H5.6C4.16406 6.9999 3 8.16396 3 9.5999V22.3999C3 23.6292 3.85308 24.6592 4.99951 24.9302L5 9.5999C5 9.26853 5.26863 8.9999 5.6 8.9999H7.00029H20.9994V6.99992L9.00029 6.9999V5.6C9.00029 5.26863 9.26892 5 9.60029 5H22.4003C22.7317 5 23.0003 5.26863 23.0003 5.6L22.9994 6.99992L23.0003 11.1942H25.0003V8.9999H26.4C26.7314 8.9999 27 9.26853 27 9.5999H29C29 8.16396 27.8359 6.9999 26.4 6.9999H25.0003V5.6C25.0003 4.16406 23.8362 3 22.4003 3H9.60029Z" fill="black"/>
</g>
<defs>
<clipPath id="clip0_3019_540">
<rect width="26" height="26" fill="white" transform="translate(3 3)"/>
</clipPath>
</defs>
</svg>
