<svg width="48" height="48" viewBox="0 0 48 48" fill="none" xmlns="http://www.w3.org/2000/svg">
<rect width="48" height="48" fill="#B3FF38"/>
<g clip-path="url(#clip0_3019_558)">
<path d="M15.0003 22.3712C15.0003 23.8072 16.1644 24.9712 17.6003 24.9712H30.4003C30.7317 24.9712 31.0003 25.2399 31.0003 25.5712V30.9999H17.0003V29.036H15.0003V34.4C15.0003 35.8359 16.1644 37 17.6003 37H30.4003C31.6297 37 32.6598 36.1467 32.9307 35.0001L17.6003 35C17.2689 35 17.0003 34.7314 17.0003 34.4V32.9999L33.0003 33.0001L34.4 32.9999C35.8359 32.9999 37 31.8358 37 30.3999H35C35 30.7313 34.7314 30.9999 34.4 30.9999H33.0003V25.5712C33.0003 24.1353 31.8362 22.9712 30.4003 22.9712H17.6003C17.2689 22.9712 17.0003 22.7026 17.0003 22.3712V19H15.0007L15.0003 22.3712Z" fill="black"/>
<path d="M17.6003 11C16.1644 11 15.0003 12.1641 15.0003 13.6V14.9999H13.6C12.1641 14.9999 11 16.164 11 17.5999V30.3999C11 31.6292 11.8531 32.6592 12.9995 32.9302L13 17.5999C13 17.2685 13.2686 16.9999 13.6 16.9999H15.0003H28.9994V14.9999L17.0003 14.9999V13.6C17.0003 13.2686 17.2689 13 17.6003 13H30.4003C30.7317 13 31.0003 13.2686 31.0003 13.6L30.9994 14.9999L31.0003 19.1942H33.0003V16.9999H34.4C34.7314 16.9999 35 17.2685 35 17.5999H37C37 16.164 35.8359 14.9999 34.4 14.9999H33.0003V13.6C33.0003 12.1641 31.8362 11 30.4003 11H17.6003Z" fill="black"/>
</g>
<defs>
<clipPath id="clip0_3019_558">
<rect width="26" height="26" fill="white" transform="translate(11 11)"/>
</clipPath>
</defs>
</svg>
