<svg width="82" height="18" viewBox="0 0 82 18" fill="none" xmlns="http://www.w3.org/2000/svg">
<path d="M34.2613 9.59252H30.1201V5.92864H28.2852V15.0078H30.1201V11.3238H34.2613V15.0078H36.0962V5.92864H34.2613V9.59252Z" fill="#12121A"/>
<path d="M44.5992 11.1225C44.5992 12.6021 43.8672 13.3873 42.5436 13.3873C41.21 13.3873 40.478 12.582 40.478 11.0621V5.93871H38.6431V11.1326C38.6431 13.6892 40.0569 15.1487 42.5236 15.1487C45.0103 15.1487 46.4341 13.659 46.4341 11.052V5.92864H44.5992V11.1225Z" fill="#12121A"/>
<path d="M65.7963 12.1693L63.7508 5.92864H62.2467L60.2012 12.1693L58.1958 5.93871H56.2506L59.3991 15.0078H60.9131L62.9687 9.04898L65.0242 15.0078H66.5584L69.7069 5.93871H67.8017L65.7963 12.1693Z" fill="#12121A"/>
<path d="M72.9957 11.1024H76.3247V9.4516H72.9957V7.58947H77.8388V5.93871H71.1808V14.9977H78.0092V13.347H72.9957V11.1024Z" fill="#12121A"/>
<path d="M82 5.92864H80.1951V14.9877H82V5.92864Z" fill="#12121A"/>
<path d="M51.3473 5.92864L47.3666 14.9977H49.2316L50.0539 13.1054H54.195L55.0072 14.9977H56.9324L52.9617 5.92864H51.3473ZM50.7357 11.4748L52.1194 8.2236L53.5132 11.4748H50.7357Z" fill="#12121A"/>
<path d="M22.0885 7.13651C22.2188 5.08313 20.1633 3.18073 20.1633 3.18073C20.1633 3.18073 16.343 7.83104 13.5554 13.9409C13.5454 13.9711 13.5354 14.0315 13.5655 14.0516C13.5855 14.0717 13.6256 14.0818 13.6758 14.0616C14.7186 13.5382 19.0603 11.2936 20.8952 9.54219C20.8852 9.53213 22.0283 8.61616 22.0885 7.13651ZM17.2153 2.49627C17.2153 2.49627 16.734 0.704592 14.7988 0.231509C14.7988 0.231509 14.2373 0.0905904 13.6457 0.0100656C13.6457 0.0100656 11.4798 2.8083 12.5327 13.3873C12.5427 13.4476 12.5728 13.4577 12.5928 13.4678C12.633 13.4778 12.6731 13.4678 12.6931 13.4275C13.385 12.421 16.5535 7.70019 17.2053 4.83149C17.2053 4.82142 17.5562 3.43237 17.2153 2.49627ZM14.2473 15.5413C14.2373 15.5614 14.2273 15.6218 14.2674 15.652C14.9693 16.1553 17.095 17.645 18.1177 17.9369C18.1177 17.9369 20.0129 18.5811 21.6473 15.7527C21.6473 15.7527 16.1524 15.5614 14.3175 15.501C14.2974 15.501 14.2573 15.5111 14.2473 15.5413ZM23.5925 9.26036C23.5925 9.26036 17.3757 12.6122 14.1571 14.7864C14.137 14.8065 14.1069 14.8367 14.117 14.887C14.127 14.9172 14.1571 14.9474 14.1972 14.9474C15.3503 14.9474 19.702 14.9575 19.8123 14.9374C19.8123 14.9374 20.3738 14.9172 21.0757 14.6455C21.0757 14.6455 22.6299 14.1522 23.4321 12.3807C23.4321 12.3908 24.154 10.9413 23.5925 9.26036ZM9.6449 14.7864C6.42622 12.6122 0.20946 9.26036 0.20946 9.26036C-0.342027 10.9413 0.369892 12.3908 0.369892 12.3908C1.17206 14.1623 2.72625 14.6555 2.72625 14.6555C3.41811 14.9273 3.98965 14.9474 3.98965 14.9474C4.09995 14.9676 8.46171 14.9676 9.60479 14.9575C9.6449 14.9575 9.67498 14.9273 9.68501 14.8971C9.69504 14.8367 9.66495 14.8065 9.6449 14.7864ZM9.48447 15.501C7.65955 15.5614 2.1547 15.7527 2.1547 15.7527C3.79914 18.5811 5.68422 17.9369 5.68422 17.9369C6.70698 17.645 8.83271 16.1553 9.5346 15.652C9.57471 15.6218 9.56468 15.5614 9.55466 15.5413C9.54463 15.5111 9.50452 15.501 9.48447 15.501ZM9.00317 0.221443C7.06795 0.704592 6.58665 2.49627 6.58665 2.49627C6.24574 3.43237 6.59668 4.82142 6.59668 4.82142C7.23841 7.69012 10.407 12.4109 11.1088 13.4175C11.1389 13.4577 11.169 13.4678 11.2091 13.4577C11.2392 13.4476 11.2593 13.4275 11.2693 13.3772C12.3221 2.79824 10.1563 0 10.1563 0C9.56468 0.0805248 9.00317 0.221443 9.00317 0.221443ZM3.63871 3.17067C3.63871 3.17067 1.57314 5.07306 1.70349 7.12645C1.76365 8.60609 2.90673 9.53213 2.90673 9.53213C4.73165 11.2835 9.07336 13.5282 10.1262 14.0516C10.1663 14.0717 10.2064 14.0616 10.2365 14.0415C10.2666 14.0113 10.2666 13.961 10.2465 13.9308C7.46903 7.82097 3.63871 3.17067 3.63871 3.17067Z" fill="#12121A"/>
</svg>
