<svg width="78" height="18" viewBox="0 0 78 18" fill="none" xmlns="http://www.w3.org/2000/svg">
<path d="M50.5166 2.46826H53.641C56.0323 2.46826 57.3181 3.61575 57.3181 5.54027C57.3181 7.34516 55.8521 8.4448 54.1096 8.4448H52.4393V11.3135H50.5166V2.46826ZM53.7971 6.77142C54.8186 6.77142 55.3113 6.41285 55.3113 5.46849C55.3113 4.41671 54.6864 4.14164 53.6049 4.14164H52.4393V6.77142H53.7971Z" fill="#12121A"/>
<path d="M58.3627 2.46826H61.6073C63.9865 2.46826 65.2844 3.28111 65.2844 5.14573C65.2844 6.13794 64.8999 6.7833 64.1789 7.22553C64.8878 7.45275 65.2483 8.07418 65.2483 8.82729V11.3135H63.3256V9.04247C63.3256 8.36114 63.0013 8.14596 62.4244 8.14596H60.2854V11.3135H58.3627V2.46826ZM61.7634 6.59205C62.7969 6.59205 63.2776 6.28134 63.2776 5.30117C63.2776 4.36886 62.6407 4.14164 61.5712 4.14164H60.2854V6.59205H61.7634Z" fill="#12121A"/>
<path d="M66.3914 6.95062C66.3914 3.92663 68.3141 2.34879 70.7536 2.34879C73.1811 2.34879 74.8875 3.92663 74.8875 6.80723C74.8875 9.81934 72.9889 11.433 70.5373 11.433C68.1099 11.433 66.3914 9.84326 66.3914 6.95062ZM70.5613 9.7596C72.0754 9.7596 72.8926 8.70782 72.8926 6.86696C72.8926 5.13385 72.1836 4.02217 70.6816 4.02217C69.1673 4.02217 68.3744 5.12181 68.3744 6.97455C68.3744 8.75551 69.1073 9.7596 70.5613 9.7596Z" fill="#12121A"/>
<path d="M75.3702 2.74643H74.8428V2.46192H76.2043V2.74643H75.677V4.02852H75.3702V2.74643ZM76.3525 2.46192H76.6971L77.1763 3.62063L77.6554 2.46192H78V4.02852H77.7001V2.99318L77.2762 4.02852H77.0694L76.642 2.99318V4.02852H76.3525V2.46192Z" fill="#12121A"/>
<path d="M74.7811 13.4003H50.5182V16.0004H74.7811V13.4003Z" fill="#12121A"/>
<path fill-rule="evenodd" clip-rule="evenodd" d="M24.1299 0C10.7363 0 0 3.99326 0 8.9998C0 13.976 10.8248 18 24.1299 18C37.4353 18 48.26 13.9625 48.26 8.9998C48.26 4.03729 37.4353 0 24.1299 0ZM1.00701 9.00273C1.00701 13.5395 11.3591 17.2169 24.1294 17.2169C36.8985 17.2169 47.2501 13.5395 47.2501 9.00273C47.2501 4.46552 36.8985 0.788517 24.1294 0.788517C11.3591 0.788517 1.00701 4.46552 1.00701 9.00273Z" fill="#12121A"/>
<path d="M33.6344 10.9064C33.6415 10.9474 33.6952 10.987 33.7479 11.0059C33.7662 11.0127 33.7767 11.026 33.7558 11.069C33.6055 11.3893 33.4674 11.5741 33.2789 11.8524C33.1058 12.1096 32.9108 12.3103 32.6745 12.5031C32.3181 12.7966 31.8229 13.1159 31.4138 12.9013C31.2319 12.8073 31.1533 12.5544 31.1569 12.3495C31.1664 11.7735 31.4233 11.1821 31.8988 10.6009C32.4788 9.89077 33.1199 9.52243 33.5408 9.72377C33.976 9.93032 33.8369 10.4316 33.6422 10.8252C33.6278 10.8556 33.6268 10.8815 33.6344 10.9064Z" fill="#12121A"/>
<path d="M21.6787 7.06389C21.6936 7.14348 21.7249 7.15878 21.761 7.15211C21.941 7.11629 22.1382 6.96884 22.2545 6.79825C22.3611 6.64346 22.4108 6.41999 22.3054 6.33047C22.211 6.25007 22.0579 6.27286 21.9445 6.37262C21.7183 6.57136 21.6494 6.85344 21.6787 7.06389Z" fill="#12121A"/>
<path fill-rule="evenodd" clip-rule="evenodd" d="M24.1294 1.47172C11.8077 1.47172 1.82011 4.85851 1.82011 9.00273C1.82011 13.1474 11.8077 16.5345 24.1294 16.5345C36.4508 16.5345 46.4378 13.1474 46.4378 9.00273C46.4378 4.85851 36.4508 1.47172 24.1294 1.47172ZM38.2344 6.32314C38.3041 6.32314 38.3372 6.36334 38.3058 6.41819C38.1225 6.73397 34.5883 12.0858 34.3651 12.6395C34.2941 12.8148 34.2859 12.9486 34.3579 13.0451C34.5428 13.2938 34.9542 13.1493 35.2124 12.9701C35.9782 12.445 36.5078 11.8102 37.0962 11.2536C37.1296 11.2285 37.1875 11.2189 37.2271 11.2523C37.3138 11.3325 37.4405 11.4367 37.5279 11.5277C37.5688 11.5715 37.5531 11.6151 37.5318 11.6419C36.9574 12.3397 36.3219 12.9986 35.7145 13.4649C34.7687 14.1933 33.8258 14.378 33.3588 13.9117C33.1843 13.7377 33.0891 13.489 33.0773 13.2795C33.0718 13.1656 33.0132 13.16 32.9589 13.2129C32.4012 13.7618 31.4325 14.3696 30.5505 13.9371C29.8135 13.5748 29.6433 12.7009 29.7811 11.9634C29.7834 11.9474 29.7677 11.8436 29.678 11.9056C29.5242 12.015 29.3236 12.1359 29.0739 12.2281C28.7672 12.342 28.6232 12.385 28.3388 12.3817C27.9811 12.3794 27.6587 12.2281 27.4313 11.8758C27.3046 11.6854 27.2523 11.3952 27.2398 11.1831C27.2385 11.1595 27.2074 11.1178 27.1737 11.1717C26.5719 12.0858 26.0103 12.9701 25.4137 13.8992C25.3829 13.9423 25.3554 13.9701 25.2939 13.9731C24.9247 13.9731 24.5212 13.9721 24.1145 13.974C24.041 13.974 24.0076 13.9192 24.0459 13.8494C24.2557 13.447 25.3996 11.7878 26.1772 10.3756C26.3915 9.98794 26.3483 9.78773 26.2148 9.7018C26.0482 9.59455 25.7174 9.75617 25.4376 9.96792C24.675 10.5425 24.0348 11.4374 23.7103 11.8374C23.519 12.0733 23.3386 12.4203 22.8389 12.9597C22.0528 13.8085 21.0111 14.2961 20.0069 13.9592C19.4583 13.7756 19.0614 13.3366 18.9099 12.7989C18.8797 12.6944 18.8212 12.6654 18.7643 12.7342C18.6018 12.9353 18.2701 13.2315 17.9928 13.4185C17.9628 13.44 17.888 13.4841 17.8233 13.4525C17.7652 13.4266 17.5591 13.1373 17.5186 13.0539C17.4885 12.9924 17.5153 12.9262 17.551 12.8944C17.9474 12.5482 18.1641 12.3518 18.3367 12.1359C18.4648 11.9754 18.5639 11.7943 18.6797 11.5043C18.9205 10.9002 19.4696 9.77113 20.5647 9.18779C20.9829 8.96513 21.4064 8.80513 21.8757 8.75078C22.0782 8.72879 22.2441 8.75434 22.3033 8.9111C22.3264 8.97685 22.3822 9.12057 22.4174 9.22637C22.4388 9.29066 22.4232 9.33916 22.3472 9.36829C21.7011 9.61211 21.0536 9.99087 20.6058 10.5869C20.0986 11.264 19.9611 12.0793 20.3015 12.5482C20.5492 12.8879 20.9499 12.9473 21.3351 12.8259C21.9197 12.6425 22.4174 12.1001 22.6733 11.499C22.952 10.8426 22.9973 10.0654 22.7916 9.38198C22.7577 9.26446 22.7877 9.17282 22.8651 9.1095C23.0207 8.98467 23.2349 8.88685 23.2964 8.85331C23.4296 8.77926 23.588 8.83346 23.6634 8.943C23.8762 9.25762 23.9919 9.70083 24.0034 10.1584C24.0166 10.255 24.058 10.2573 24.1055 10.2075C24.4865 9.80303 24.8423 9.37253 25.2487 9.04765C25.6199 8.75338 26.0957 8.51314 26.5411 8.52356C27.1151 8.53624 27.4025 8.92477 27.3825 9.61538C27.3806 9.70375 27.445 9.69757 27.4869 9.63783C27.6587 9.39466 27.7717 9.27341 27.9703 9.1095C28.3669 8.78398 28.7737 8.63716 29.1979 8.66679C29.7202 8.70488 30.1378 9.18064 30.0524 9.72003C29.9971 10.0677 29.8079 10.374 29.4862 10.5327C29.2133 10.6652 28.8948 10.6426 28.672 10.4442C28.4897 10.2775 28.4304 10.0399 28.4785 9.80077C28.4887 9.75095 28.4242 9.70473 28.3706 9.76007C27.86 10.2886 27.8224 10.972 28.1562 11.2796C28.5247 11.6192 29.0755 11.3916 29.478 11.1309C30.215 10.6517 30.7858 10.0032 31.4475 9.50274C31.8864 9.17119 32.3858 8.87691 32.9464 8.80204C33.2567 8.76103 33.5555 8.78333 33.8608 8.9067C34.2617 9.06783 34.516 9.40459 34.5481 9.69757C34.5556 9.78318 34.6211 9.7936 34.6744 9.7184C34.9915 9.22507 36.6959 6.68482 36.8357 6.41819C36.8782 6.33486 36.9247 6.32396 37.015 6.32396C37.394 6.32396 37.8709 6.32314 38.2344 6.32314ZM10.0596 11.75C10.1927 13.1522 11.3536 13.9625 12.6714 13.953C13.72 13.9449 14.7081 13.629 15.8966 12.4287C17.0046 11.3094 18.0139 9.63751 18.959 8.08701C18.9887 8.03754 19.0098 8.01085 19.1533 7.99311C19.7463 7.91938 20.6214 7.83522 21.1826 7.80299C21.3073 7.79632 21.3325 7.79762 21.3825 7.85964C21.5288 8.04308 21.7483 8.19868 21.9242 8.2934L21.9311 8.29717C22.012 8.34089 22.0525 8.36277 22.1179 8.36404C22.201 8.36567 22.2657 8.32123 22.3074 8.27403C22.367 8.2091 22.3835 8.1243 22.3512 8.0696C22.3177 8.01214 21.9263 7.79632 21.9148 7.70909C21.9062 7.65472 21.9662 7.64154 21.9662 7.64154C22.2537 7.55185 22.553 7.36728 22.7343 7.02189C22.9125 6.68155 22.9413 6.22777 22.6155 5.97532C22.3293 5.75363 21.8972 5.78863 21.5522 6.09642C21.2151 6.39541 21.1034 6.82999 21.149 7.21119C21.1571 7.27711 21.1536 7.29956 21.0631 7.30705C20.5445 7.34823 20.0448 7.36256 19.4894 7.39185C19.4521 7.39446 19.4404 7.37005 19.462 7.3445C20.1018 6.23867 21.0571 5.45139 22.1138 4.67597C22.1839 4.62365 22.1624 4.52443 22.1596 4.44143C24.0675 4.85379 25.9111 5.62114 27.8905 5.60479C28.7089 5.59811 29.4928 5.47426 30.2419 5.06555C30.9007 4.70812 31.1677 4.37755 31.1873 4.03411C31.2027 3.79663 31.0368 3.64656 30.8005 3.6976C28.8006 4.15473 26.8929 4.14959 24.9031 3.91C22.3059 3.5966 19.8286 2.90363 17.2129 3.11865C15.041 3.30046 12.9739 4.51678 12.9701 6.36334C12.9679 7.29956 13.6371 8.05838 14.674 8.02485C15.8926 7.98399 16.8931 7.01294 17.4167 5.78863C17.6156 5.32419 17.2472 5.13123 17.0722 5.39865C16.7597 5.88043 16.319 6.25446 15.8426 6.48673C15.2691 6.76587 14.6563 6.6905 14.4707 6.22727C14.2095 5.57411 14.7525 4.59655 15.9916 4.13649C17.7812 3.47746 19.654 3.91334 21.4558 4.25009C21.4815 4.25009 21.5774 4.30308 21.4925 4.34711C21.1698 4.52192 20.8524 4.66434 20.3572 5.08793C20.0024 5.39027 19.5379 5.7927 19.1785 6.23102C18.822 6.663 18.5692 7.04842 18.2346 7.47552C18.188 7.5372 18.1306 7.53443 18.1313 7.53443C17.3161 7.67132 16.5179 7.76296 15.7872 8.2685C15.6362 8.37219 15.5706 8.55627 15.6622 8.69738C15.7447 8.82223 15.9329 8.83556 16.0637 8.74084C16.5179 8.4031 16.9852 8.24408 17.5212 8.22943C17.5446 8.2309 17.5558 8.23482 17.5624 8.24897C17.5667 8.2571 17.564 8.27403 17.5544 8.28673C16.7514 9.39466 16.5505 9.645 15.9464 10.332C15.6375 10.6851 15.3335 10.9831 14.9939 11.2932C13.6224 12.5606 12.1474 12.5388 11.6181 11.744C11.302 11.2673 11.3437 10.7666 11.5509 10.3512C11.806 9.84244 12.3219 9.46986 12.7505 9.25209C12.9095 9.17119 12.9555 8.96872 12.7961 8.78429C12.6947 8.66403 12.449 8.64269 12.2661 8.67606C11.7043 8.77926 11.0406 9.20162 10.6484 9.70993C10.2064 10.2804 9.98556 10.973 10.0596 11.75Z" fill="#12121A"/>
</svg>
