<svg width="28" height="28" viewBox="0 0 28 28" fill="none" xmlns="http://www.w3.org/2000/svg">
<path d="M19.3163 7.01562L19.5028 7.2334C19.6272 7.39933 19.7156 7.65385 19.7674 7.99609C19.8503 8.49376 19.5913 9.04321 18.9901 9.64453C18.7931 9.84158 18.5701 10.034 18.3212 10.2207C18.0722 10.4074 17.6725 10.7756 17.1229 11.3252C16.9673 11.4808 16.7284 11.7092 16.4071 12.0098C16.0859 12.3103 15.8836 12.502 15.8006 12.585C15.5858 12.7998 15.2968 13.1182 14.9305 13.5371C15.514 14.1349 16.0145 14.6445 16.1268 14.7568C16.2098 14.8398 16.412 15.0315 16.7333 15.332C17.0547 15.6327 17.2935 15.861 17.4491 16.0166C17.9987 16.5663 18.3984 16.9344 18.6473 17.1211C18.8961 17.3077 19.1193 17.5003 19.3163 17.6973C19.9174 18.2986 20.1765 18.848 20.0936 19.3457C20.0418 19.6879 19.9534 19.9425 19.829 20.1084L19.6424 20.3262L19.2538 20.3418C18.9843 20.3418 18.7663 20.269 18.6004 20.124C18.445 19.9893 18.3154 19.8386 18.2118 19.6729C18.2014 19.6625 18.0508 19.4497 17.7606 19.0352C17.5739 18.7863 17.2879 18.4697 16.9042 18.0859C16.6765 17.8583 16.5214 17.7234 16.4383 17.6816C16.3761 17.6609 16.1889 17.4947 15.8778 17.1836C15.6704 16.9762 15.3485 16.6343 14.9129 16.1572C14.747 15.9913 14.4882 15.7105 14.1356 15.3164C14.064 15.2448 13.909 15.0855 13.702 14.8721C12.8146 15.7982 11.6669 16.9677 11.6102 17.0244C11.4133 17.2421 11.2574 17.439 11.1434 17.6152C11.0191 17.8018 10.9158 17.9471 10.8329 18.0508C10.2728 18.7145 9.94574 19.1658 9.8524 19.4043C9.79019 19.5287 9.71756 19.6329 9.63463 19.7158C9.33395 20.0163 8.97606 20.0628 8.56139 19.8555C8.43695 19.7932 8.33808 19.7259 8.26549 19.6533C8.02704 19.4148 7.94913 19.1497 8.03209 18.8594C8.12531 18.4762 8.21914 18.2381 8.31236 18.1445C8.40564 18.0513 8.53526 17.9006 8.70104 17.6934C8.85654 17.4756 9.03863 17.263 9.24596 17.0557C9.60891 16.6927 10.0182 16.2098 10.4745 15.6084C10.7192 15.2726 11.5913 14.3363 12.3876 13.499C11.6928 12.7629 11.0123 12.0238 10.8006 11.7334C10.3443 11.1319 9.93511 10.6491 9.57213 10.2861C9.36471 10.0787 9.18277 9.86623 9.02721 9.64844C8.86134 9.44111 8.73185 9.29058 8.63854 9.19727C8.54522 9.10388 8.45158 8.86508 8.35826 8.48145C8.2755 8.19126 8.35333 7.92687 8.59166 7.68848C8.66426 7.61588 8.76311 7.54855 8.88756 7.48633C9.30231 7.27898 9.66009 7.32535 9.9608 7.62598C10.0438 7.70894 10.1163 7.81305 10.1786 7.9375C10.272 8.17606 10.5991 8.62739 11.159 9.29102C11.242 9.3947 11.3453 9.5401 11.4696 9.72656C11.5837 9.90282 11.7394 10.0997 11.9364 10.3174C12.0193 10.4003 12.3203 10.7424 12.8387 11.3438C12.98 11.5081 13.2769 11.8238 13.6366 12.2002C13.7135 12.1215 13.7726 12.0613 13.8094 12.0244C14.162 11.6304 14.4218 11.3505 14.5878 11.1846C15.0231 10.7078 15.3442 10.3656 15.5516 10.1582C15.8627 9.84708 16.0499 9.6809 16.1122 9.66016C16.1952 9.61854 16.351 9.48382 16.579 9.25586C16.9626 8.8722 17.2478 8.55551 17.4344 8.30664C17.7247 7.89197 17.8752 7.67931 17.8856 7.66895C17.9893 7.50309 18.1188 7.35254 18.2743 7.21777C18.4402 7.07264 18.658 7.00001 18.9276 7L19.3163 7.01562Z" fill="#12121A"/>
</svg>
