<svg width="28" height="28" viewBox="0 0 28 28" fill="none" xmlns="http://www.w3.org/2000/svg">
<path d="M18.1296 9.00526C18.0272 8.9907 17.9539 9.00535 17.9099 9.04921C17.8953 9.06387 17.7928 9.0863 17.6023 9.11562C17.353 9.14494 17.0743 9.28434 16.7664 9.53358C16.6197 9.65088 16.5457 9.89269 16.5457 10.2592C16.5457 10.523 16.5974 10.677 16.7 10.7211C16.7879 10.7651 16.9127 10.9268 17.074 11.2055C17.1325 11.2933 17.1765 11.3371 17.2058 11.3373C17.2351 11.3373 17.3598 11.499 17.5798 11.8217C17.9164 12.3192 18.1144 12.5686 18.1736 12.5697C18.2029 12.5697 18.2477 12.6136 18.3064 12.7016C18.3229 12.7345 18.3426 12.7672 18.3611 12.8021C18.0769 12.8168 17.719 12.8163 17.2878 12.7963C16.9657 12.7813 16.7611 12.7574 16.6746 12.724C16.6172 12.692 16.3688 12.6653 15.9294 12.6449C15.6364 12.6313 15.167 12.6241 14.5212 12.6234C14.2869 12.6125 13.9054 12.6098 13.3767 12.6146C12.8639 12.5908 12.2309 12.62 11.4783 12.7025C10.7263 12.7704 10.0936 12.7918 9.58081 12.768C9.28794 12.7544 9.00856 12.7636 8.74292 12.7953C8.47789 12.8124 8.27906 12.818 8.14722 12.8119C8.01529 12.806 7.77651 12.8981 7.43042 13.0873C7.16001 13.2215 7.01649 13.4566 7.00073 13.7934C6.99597 13.8959 7.01271 14.0149 7.05054 14.1488C7.17666 14.5949 7.45202 14.8283 7.87671 14.848C7.99392 14.8535 8.11976 14.837 8.25366 14.7992C8.49285 14.7076 9.04617 14.6448 9.91382 14.6117C10.0463 14.6032 10.2235 14.5819 10.4451 14.5482C10.6522 14.5138 10.9033 14.4965 11.197 14.4955C11.3146 14.5009 11.77 14.4929 12.5632 14.4711C13.3423 14.4486 13.9225 14.4456 14.3035 14.4633C14.4206 14.4687 14.6988 14.4888 15.1375 14.5238C15.5763 14.5589 15.906 14.582 16.1257 14.5922C16.9022 14.6283 17.4432 14.6755 17.7488 14.7338C18.0544 14.792 18.3474 14.8273 18.6257 14.8402C18.5873 14.8551 18.4951 14.9328 18.3503 15.0775C18.2037 15.2242 18.0858 15.2973 17.9978 15.2973C17.9538 15.2974 17.8728 15.3559 17.7556 15.473C17.6383 15.5904 17.5282 15.6712 17.4255 15.7152C17.3962 15.7299 17.3522 15.7592 17.2937 15.8031C17.2352 15.847 17.1843 15.8842 17.1404 15.9135L17.074 15.9574C17.03 15.9281 16.9783 15.9281 16.9197 15.9574C16.8612 15.9867 16.8319 16.0308 16.8318 16.0892C16.8318 16.1478 16.7955 16.177 16.7224 16.1771C16.6784 16.1771 16.6122 16.2366 16.5242 16.3539C16.4508 16.4858 16.3475 16.6399 16.2156 16.8158C16.0691 16.9769 15.9666 17.1087 15.908 17.2113C15.8493 17.3287 15.8493 17.4757 15.908 17.6517C15.952 17.7983 16.0104 17.9085 16.0837 17.9818C16.0984 18.0112 16.1209 18.0551 16.1501 18.1137C16.1648 18.1722 16.1794 18.2162 16.1941 18.2455C16.2087 18.2747 16.2303 18.3042 16.2595 18.3334C16.2889 18.3627 16.3337 18.3919 16.3923 18.4213C16.4363 18.4359 16.502 18.4506 16.5896 18.4652C16.7949 18.5239 16.9274 18.5239 16.9861 18.4652C17.0301 18.4213 17.0965 18.3998 17.1843 18.3998C17.2281 18.3997 17.2793 18.385 17.3376 18.3559C17.3816 18.3265 17.4333 18.3187 17.4919 18.3334C17.5946 18.3481 17.6462 18.3334 17.6462 18.2894C17.6463 18.2748 17.6678 18.2454 17.7117 18.2016C17.741 18.1429 17.7702 18.0913 17.7996 18.0473L17.8435 17.9594C17.8147 17.9299 17.8516 17.8712 17.9539 17.7836C18.0419 17.6809 18.1081 17.6293 18.1521 17.6293C18.1961 17.6292 18.2478 17.5854 18.3064 17.4975C18.3358 17.4535 18.3943 17.4017 18.4822 17.3432C18.57 17.2846 18.6287 17.226 18.658 17.1674C18.6727 17.1234 18.7682 17.0424 18.9441 16.9252C19.1196 16.8082 19.2369 16.7496 19.2957 16.7494C19.3103 16.7494 19.4282 16.6539 19.6482 16.4633C19.8529 16.2732 19.9701 16.1776 19.9998 16.1771C20.1171 16.1771 20.3227 16.031 20.616 15.7377C20.7333 15.6204 20.8142 15.5619 20.8582 15.5619C20.8876 15.5618 20.9539 15.5316 21.0564 15.473C21.1439 15.4001 21.2097 15.3638 21.2537 15.3637C21.3563 15.3637 21.4957 15.1509 21.6716 14.726C21.745 14.5353 21.782 14.3366 21.782 14.1312C21.782 14.029 21.7672 13.9634 21.738 13.934L21.6277 13.7797C21.5544 13.677 21.4891 13.5737 21.4304 13.4711L21.3201 13.3392C21.2761 13.3392 21.2175 13.2736 21.1443 13.142C21.1003 13.054 21.0194 12.9653 20.9021 12.8773C20.7848 12.7893 20.6971 12.6793 20.6384 12.5473C20.5944 12.4446 20.5204 12.3491 20.4177 12.2611C20.3008 12.1588 20.2274 12.0785 20.198 12.0199C20.198 12.0052 20.1396 11.9312 20.0222 11.7992C19.8903 11.6526 19.824 11.5649 19.824 11.5355C19.824 11.5062 19.7577 11.4038 19.6257 11.2279C19.4943 11.038 19.429 10.9277 19.4285 10.8978C19.3992 10.8246 19.3621 10.7729 19.3181 10.7435C19.2594 10.7289 19.164 10.5818 19.032 10.3031C18.8856 10.0249 18.7977 9.81985 18.7683 9.68788C18.739 9.57055 18.6649 9.46729 18.5476 9.37929L18.3279 9.20351C18.3279 9.18889 18.3062 9.18898 18.2625 9.20351L18.2175 9.18105C18.3055 9.09305 18.2763 9.0346 18.1296 9.00526Z" fill="#12121A"/>
</svg>
