<svg width="28" height="28" viewBox="0 0 28 28" fill="none" xmlns="http://www.w3.org/2000/svg">
<path d="M10.6523 9.00526C10.7547 8.9907 10.8281 9.00535 10.8721 9.04921C10.8867 9.06387 10.9892 9.0863 11.1797 9.11562C11.429 9.14494 11.7077 9.28434 12.0156 9.53358C12.1622 9.65088 12.2363 9.89269 12.2363 10.2592C12.2363 10.523 12.1846 10.677 12.082 10.7211C11.994 10.7651 11.8693 10.9268 11.708 11.2055C11.6495 11.2933 11.6055 11.3371 11.5762 11.3373C11.5468 11.3373 11.4221 11.499 11.2021 11.8217C10.8656 12.3192 10.6676 12.5686 10.6084 12.5697C10.5791 12.5697 10.5343 12.6136 10.4756 12.7016C10.4591 12.7345 10.4394 12.7672 10.4209 12.8021C10.7051 12.8168 11.063 12.8163 11.4941 12.7963C11.8163 12.7813 12.0209 12.7574 12.1074 12.724C12.1648 12.692 12.4132 12.6653 12.8525 12.6449C13.1456 12.6313 13.615 12.6241 14.2607 12.6234C14.4951 12.6125 14.8766 12.6098 15.4053 12.6146C15.9181 12.5908 16.5511 12.62 17.3037 12.7025C18.0557 12.7704 18.6884 12.7918 19.2012 12.768C19.494 12.7544 19.7734 12.7636 20.0391 12.7953C20.3041 12.8124 20.5029 12.818 20.6348 12.8119C20.7667 12.806 21.0055 12.8981 21.3516 13.0873C21.622 13.2215 21.7655 13.4566 21.7812 13.7934C21.786 13.8959 21.7693 14.0149 21.7314 14.1488C21.6053 14.5949 21.33 14.8283 20.9053 14.848C20.7881 14.8535 20.6622 14.837 20.5283 14.7992C20.2891 14.7076 19.7358 14.6448 18.8682 14.6117C18.7357 14.6032 18.5585 14.5819 18.3369 14.5482C18.1298 14.5138 17.8787 14.4965 17.585 14.4955C17.4674 14.5009 17.012 14.4929 16.2188 14.4711C15.4396 14.4486 14.8594 14.4456 14.4785 14.4633C14.3613 14.4687 14.0832 14.4888 13.6445 14.5238C13.2057 14.5589 12.876 14.582 12.6562 14.5922C11.8798 14.6283 11.3388 14.6755 11.0332 14.7338C10.7276 14.792 10.4346 14.8273 10.1562 14.8402C10.1947 14.8551 10.2869 14.9328 10.4316 15.0775C10.5783 15.2242 10.6962 15.2973 10.7842 15.2973C10.8282 15.2974 10.9092 15.3559 11.0264 15.473C11.1437 15.5904 11.2538 15.6712 11.3564 15.7152C11.3858 15.7299 11.4298 15.7592 11.4883 15.8031C11.5468 15.847 11.5977 15.8842 11.6416 15.9135L11.708 15.9574C11.752 15.9281 11.8037 15.9281 11.8623 15.9574C11.9207 15.9867 11.9501 16.0308 11.9502 16.0892C11.9502 16.1478 11.9865 16.177 12.0596 16.1771C12.1036 16.1771 12.1698 16.2366 12.2578 16.3539C12.3311 16.4858 12.4345 16.6399 12.5664 16.8158C12.7128 16.9769 12.8154 17.1087 12.874 17.2113C12.9327 17.3287 12.9327 17.4757 12.874 17.6517C12.83 17.7983 12.7715 17.9085 12.6982 17.9818C12.6836 18.0112 12.6611 18.0551 12.6318 18.1137C12.6172 18.1722 12.6025 18.2162 12.5879 18.2455C12.5733 18.2747 12.5516 18.3042 12.5225 18.3334C12.4931 18.3627 12.4483 18.3919 12.3896 18.4213C12.3457 18.4359 12.28 18.4506 12.1924 18.4652C11.987 18.5239 11.8546 18.5239 11.7959 18.4652C11.7519 18.4213 11.6855 18.3998 11.5977 18.3998C11.5538 18.3997 11.5027 18.385 11.4443 18.3559C11.4004 18.3265 11.3487 18.3187 11.29 18.3334C11.1874 18.3481 11.1357 18.3334 11.1357 18.2894C11.1357 18.2748 11.1141 18.2454 11.0703 18.2016C11.041 18.1429 11.0117 18.0913 10.9824 18.0473L10.9385 17.9594C10.9672 17.9299 10.9304 17.8712 10.8281 17.7836C10.7401 17.6809 10.6739 17.6293 10.6299 17.6293C10.5859 17.6292 10.5342 17.5854 10.4756 17.4975C10.4462 17.4535 10.3877 17.4017 10.2998 17.3432C10.212 17.2846 10.1533 17.226 10.124 17.1674C10.1092 17.1234 10.0138 17.0424 9.83789 16.9252C9.66234 16.8082 9.54508 16.7496 9.48633 16.7494C9.47166 16.7494 9.35379 16.6539 9.13379 16.4633C8.92911 16.2732 8.81191 16.1776 8.78223 16.1771C8.66491 16.1771 8.45929 16.031 8.16602 15.7377C8.04868 15.6204 7.96783 15.5619 7.92383 15.5619C7.89441 15.5618 7.82805 15.5316 7.72559 15.473C7.63803 15.4001 7.57224 15.3638 7.52832 15.3637C7.4257 15.3637 7.28625 15.151 7.11035 14.726C7.03702 14.5353 7 14.3366 7 14.1312C7.00002 14.029 7.01481 13.9634 7.04395 13.934L7.1543 13.7797C7.22762 13.677 7.2929 13.5737 7.35156 13.4711L7.46191 13.3392C7.50586 13.3392 7.56449 13.2736 7.6377 13.142C7.6817 13.054 7.76255 12.9653 7.87988 12.8773C7.99721 12.7893 8.08489 12.6793 8.14355 12.5473C8.18756 12.4446 8.2616 12.3491 8.36426 12.2611C8.48117 12.1588 8.55457 12.0785 8.58398 12.0199C8.58398 12.0052 8.64243 11.9312 8.75977 11.7992C8.89168 11.6526 8.95795 11.5649 8.95801 11.5355C8.95801 11.5062 9.02433 11.4038 9.15625 11.2279C9.28772 11.038 9.35299 10.9277 9.35352 10.8978C9.38282 10.8246 9.41992 10.7729 9.46387 10.7435C9.52253 10.7289 9.618 10.5818 9.75 10.3031C9.89641 10.0249 9.98425 9.81985 10.0137 9.68788C10.043 9.57055 10.117 9.46729 10.2344 9.37929L10.4541 9.20351C10.4541 9.18889 10.4758 9.18898 10.5195 9.20351L10.5645 9.18105C10.4765 9.09305 10.5057 9.0346 10.6523 9.00526Z" fill="#12121A"/>
</svg>
