<svg width="28" height="28" viewBox="0 0 28 28" fill="none" xmlns="http://www.w3.org/2000/svg">
<path d="M18.2018 13.7685C17.6891 13.7924 17.0567 13.7703 16.3047 13.7025C15.5521 13.62 14.9194 13.5907 14.4066 13.6145C13.8778 13.6097 13.4962 13.6127 13.2618 13.6236C12.6158 13.6243 12.1463 13.6314 11.8533 13.645C11.4137 13.6654 11.1654 13.6917 11.1081 13.7237C11.0216 13.7571 10.8171 13.7812 10.4948 13.7962C9.95274 13.8214 9.52684 13.8192 9.21713 13.7895C8.71492 13.7247 8.45648 13.6927 8.44183 13.6934C8.24933 13.6583 8.05086 13.6528 7.84643 13.677C7.62735 13.7019 7.427 13.8139 7.24539 14.0132L6.99495 14.3112L7.03019 14.5959C7.06902 14.7996 7.19746 15.0359 7.4155 15.3047C7.72758 15.7014 8.30849 15.8799 9.15824 15.8404C9.43661 15.8275 9.7286 15.7919 10.0342 15.7337C10.3399 15.6754 10.8809 15.6283 11.6574 15.5922C11.8772 15.582 12.2065 15.5594 12.6453 15.5243C13.0842 15.4892 13.3622 15.469 13.4794 15.4635C13.8603 15.4458 14.4404 15.4482 15.2196 15.4708C16.0135 15.4926 16.469 15.5008 16.5862 15.4954C16.8799 15.4964 17.1304 15.5141 17.3375 15.5486C17.5593 15.5823 17.7365 15.6034 17.869 15.612C18.7368 15.6451 19.2903 15.7074 19.5295 15.7991C19.6634 15.8369 19.789 15.8531 19.9062 15.8477C20.331 15.828 20.6065 15.5949 20.7326 15.1486C20.7704 15.0147 20.787 14.8965 20.7822 14.7939C20.7665 14.4569 20.6235 14.2213 20.3529 14.0871C20.0064 13.8976 19.7673 13.8059 19.6354 13.8121C19.5035 13.8182 19.3051 13.8127 19.04 13.7957C18.7742 13.764 18.4949 13.7549 18.2018 13.7685Z" fill="#12121A"/>
<path d="M9.53 8.57752C10.0433 8.57752 10.674 8.52619 11.422 8.42352C12.17 8.30619 12.8007 8.24752 13.314 8.24752C13.842 8.21819 14.2233 8.20352 14.458 8.20352C15.1033 8.17419 15.5727 8.15952 15.866 8.15952C16.306 8.15952 16.5553 8.17419 16.614 8.20352C16.702 8.23285 16.9073 8.24752 17.23 8.24752C17.7727 8.24752 18.198 8.22552 18.506 8.18152C19.0047 8.09352 19.2613 8.04952 19.276 8.04952C19.4667 8.00552 19.6647 7.99085 19.87 8.00552C20.09 8.02019 20.2953 8.12285 20.486 8.31352L20.75 8.59952L20.728 8.88552C20.6987 9.09085 20.5813 9.33285 20.376 9.61152C20.0827 10.0222 19.5107 10.2275 18.66 10.2275C18.3813 10.2275 18.088 10.2055 17.78 10.1615C17.472 10.1175 16.9293 10.0955 16.152 10.0955C15.932 10.0955 15.602 10.0882 15.162 10.0735C14.722 10.0589 14.4433 10.0515 14.326 10.0515C13.9447 10.0515 13.3653 10.0809 12.588 10.1395C11.796 10.1982 11.3413 10.2275 11.224 10.2275C10.9307 10.2422 10.6813 10.2715 10.476 10.3155C10.256 10.3595 10.08 10.3889 9.948 10.4035C9.08267 10.4769 8.53267 10.5649 8.298 10.6675C8.166 10.7115 8.04133 10.7335 7.924 10.7335C7.49867 10.7335 7.21267 10.5135 7.066 10.0735C7.022 9.94152 7 9.82419 7 9.72152C7 9.38419 7.132 9.14219 7.396 8.99552C7.73333 8.79019 7.968 8.68752 8.1 8.68752C8.232 8.68752 8.43 8.67285 8.694 8.64352C8.958 8.59952 9.23667 8.57752 9.53 8.57752Z" fill="#12121A"/>
<path d="M9.53 20.156C10.0433 20.156 10.674 20.2074 11.422 20.31C12.17 20.4274 12.8007 20.486 13.314 20.486C13.842 20.5154 14.2233 20.53 14.458 20.53C15.1033 20.5594 15.5727 20.574 15.866 20.574C16.306 20.574 16.5553 20.5594 16.614 20.53C16.702 20.5007 16.9073 20.486 17.23 20.486C17.7727 20.486 18.198 20.508 18.506 20.552C19.0047 20.64 19.2613 20.684 19.276 20.684C19.4667 20.728 19.6647 20.7427 19.87 20.728C20.09 20.7134 20.2953 20.6107 20.486 20.42L20.75 20.134L20.728 19.848C20.6987 19.6427 20.5813 19.4007 20.376 19.122C20.0827 18.7114 19.5107 18.506 18.66 18.506C18.3813 18.506 18.088 18.528 17.78 18.572C17.472 18.616 16.9293 18.638 16.152 18.638C15.932 18.638 15.602 18.6454 15.162 18.66C14.722 18.6747 14.4433 18.682 14.326 18.682C13.9447 18.682 13.3653 18.6527 12.588 18.594C11.796 18.5354 11.3413 18.506 11.224 18.506C10.9307 18.4914 10.6813 18.462 10.476 18.418C10.256 18.374 10.08 18.3447 9.948 18.33C9.08267 18.2567 8.53267 18.1687 8.298 18.066C8.166 18.022 8.04133 18 7.924 18C7.49867 18 7.21267 18.22 7.066 18.66C7.022 18.792 7 18.9094 7 19.012C7 19.3494 7.132 19.5914 7.396 19.738C7.73333 19.9434 7.968 20.046 8.1 20.046C8.232 20.046 8.43 20.0607 8.694 20.09C8.958 20.134 9.23667 20.156 9.53 20.156Z" fill="#12121A"/>
</svg>
