<svg preserveAspectRatio="none" width="100%" height="100%" overflow="visible" style="display: block;" viewBox="0 0 64 64" fill="none" xmlns="http://www.w3.org/2000/svg">
<g id="Union">
<path d="M9.84687 27.9907C9.84687 31.5253 12.7123 34.3907 16.2469 34.3907H47.7546C48.5703 34.3907 49.2315 35.0519 49.2315 35.8676V49.2305H14.77V44.3962H9.84687V57.6C9.84687 61.1346 12.7123 64 16.2469 64H47.7546C50.7808 64 53.3164 61.8997 53.9833 59.0772L16.2469 59.0769C15.4312 59.0769 14.77 58.4157 14.77 57.6V54.1536L54.1545 54.1541L57.6 54.1536C61.1346 54.1536 64 51.2882 64 47.7536H59.0769C59.0769 48.5693 58.4157 49.2305 57.6 49.2305H54.1546V35.8676C54.1546 32.333 51.2892 29.4676 47.7546 29.4676H16.2469C15.4312 29.4676 14.77 28.8064 14.77 27.9907V19.6922H9.84792L9.84687 27.9907Z" fill="var(--fill-0, #12121A)"/>
<path d="M16.2469 0C12.7123 0 9.84687 2.86538 9.84687 6.4V9.8459H6.4C2.86538 9.8459 0 12.7113 0 16.2459V47.7536C0 50.7795 2.09988 53.3149 4.92188 53.9821L4.92308 16.2459C4.92308 15.4302 5.58432 14.769 6.4 14.769H9.84687H44.3063V9.84595L14.77 9.8459V6.4C14.77 5.58432 15.4312 4.92308 16.2469 4.92308H47.7546C48.5702 4.92308 49.2315 5.58432 49.2315 6.4L49.2293 9.84595L49.2315 20.1704H54.1546V14.769H57.6C58.4157 14.769 59.0769 15.4302 59.0769 16.2459H64C64 12.7113 61.1346 9.8459 57.6 9.8459H54.1546V6.4C54.1546 2.86538 51.2892 0 47.7546 0H16.2469Z" fill="var(--fill-0, #12121A)"/>
</g>
</svg>
